<?xml version="1.0" encoding="UTF-8" standalone="no"?>
<!-- Created with Inkscape (http://www.inkscape.org/) -->

<svg
   width="266.43222mm"
   height="94.859459mm"
   viewBox="0 0 266.43222 94.859459"
   version="1.1"
   id="svg1545"
   inkscape:version="1.2 (1:1.2.1+202207142221+cd75a1ee6d)"
   sodipodi:docname="IPP.svg"
   xmlns:inkscape="http://www.inkscape.org/namespaces/inkscape"
   xmlns:sodipodi="http://sodipodi.sourceforge.net/DTD/sodipodi-0.dtd"
   xmlns="http://www.w3.org/2000/svg"
   xmlns:svg="http://www.w3.org/2000/svg">
  <sodipodi:namedview
     id="namedview1547"
     pagecolor="#ffffff"
     bordercolor="#000000"
     borderopacity="0.25"
     inkscape:showpageshadow="2"
     inkscape:pageopacity="0.0"
     inkscape:pagecheckerboard="0"
     inkscape:deskcolor="#d1d1d1"
     inkscape:document-units="mm"
     showgrid="false"
     inkscape:zoom="1.1893044"
     inkscape:cx="563.35451"
     inkscape:cy="266.96277"
     inkscape:window-width="1846"
     inkscape:window-height="1136"
     inkscape:window-x="0"
     inkscape:window-y="0"
     inkscape:window-maximized="1"
     inkscape:current-layer="layer1" />
  <defs
     id="defs1542" />
  <g
     inkscape:label="Layer 1"
     inkscape:groupmode="layer"
     id="layer1"
     transform="translate(-183.91948,-157.70163)">
    <g
       id="g422"
       transform="translate(329.90221,-41.127784)">
      <path
         id="rect1759"
         d="m -145.98273,198.82941 h 266.43222 v 94.85946 h -266.43222 z"
         style="vector-effect:none;fill:#ffffff;fill-opacity:1;stroke-width:4.99999" />
      <path
         d="m -104.44137,267.31791 c -2.77504,-0.39101 -7.93372,-2.26379 -7.90996,-2.8716 0.004,-0.10669 1.0755,-1.56105 2.38074,-3.23193 1.30524,-1.67087 3.88707,-5.15644 5.7374,-7.74571 1.85033,-2.58927 3.48792,-4.6603 3.63909,-4.60229 0.15117,0.058 1.771254,1.1111 3.600187,2.3402 3.890711,2.61469 4.9149,2.96909 8.110601,2.80653 2.899341,-0.14748 4.558263,-0.92543 6.750164,-3.16549 0.838327,-0.85675 1.524232,-1.40347 1.524232,-1.21494 0,0.82163 -1.140372,4.34722 -1.889971,5.84306 -2.917066,5.82107 -8.043982,9.94326 -14.249612,11.45712 -1.866961,0.45545 -5.797171,0.65216 -7.692871,0.38505 z m -11.54776,-5.45163 c -2.98818,-2.72726 -5.22896,-6.48941 -6.30694,-10.589 -0.59239,-2.2529 -0.68093,-7.4957 -0.1629,-9.64682 0.70374,-2.92233 2.29083,-6.46348 2.76754,-6.17497 0.17658,0.10687 1.1545,0.78903 2.17314,1.51591 2.53495,1.80888 12.00181,8.38948 12.89844,8.96595 0.40018,0.2573 0.72455,0.61389 0.72083,0.79244 -0.004,0.17854 -0.66366,1.39619 -1.46652,2.70588 -2.8124,4.58781 -6.68403,11.12566 -7.43056,12.54765 -0.41439,0.78934 -0.87594,1.47509 -1.02565,1.5239 -0.14972,0.0488 -1.12504,-0.68961 -2.16738,-1.64094 z m 24.532298,-11.81488 c -1.248334,-0.3539 -6.876106,-3.96396 -6.87781,-4.41193 -7.93e-4,-0.19611 0.992624,-1.80345 2.207491,-3.57188 1.214866,-1.76842 2.713606,-3.95946 3.330532,-4.86896 0.616929,-0.90951 1.23426,-1.65365 1.371849,-1.65365 0.412374,0 5.60075,3.58537 6.370047,4.40195 1.64242,1.74336 2.003682,4.5031 0.899819,6.87381 -1.27009,2.7277 -4.318503,4.07644 -7.301928,3.23066 z m -14.419788,-8.84712 c -1.89177,-1.23222 -5.43179,-3.49387 -7.8667,-5.02588 -2.43491,-1.53201 -4.48686,-2.88215 -4.55988,-3.00031 -0.21602,-0.34952 3.09377,-3.57101 4.78172,-4.65417 3.91174,-2.51015 7.40072,-3.55409 11.87819,-3.55409 7.469359,0 14.155372,3.71733 18.283927,10.16561 0.447509,0.69895 0.452787,0.76288 0.05024,0.6084 -0.247396,-0.0949 -2.401004,-1.48818 -4.7858,-3.09612 -2.38479,-1.60793 -4.444238,-2.91943 -4.576551,-2.91445 -0.22239,0.008 -1.476618,1.88927 -7.007087,10.50813 -1.143859,1.78263 -2.232459,3.23262 -2.419109,3.22221 -0.18666,-0.0104 -1.88718,-1.02711 -3.77895,-2.25933 z m -19.75997,-8.49499 c -1.66339,-1.03185 -1.12647,-3.7433 0.82617,-4.17217 2.31268,-0.50795 3.79484,2.63878 1.9328,4.10346 -0.80678,0.63462 -1.80657,0.65952 -2.75897,0.0687 z"
         style="fill:#000000;stroke-width:0.264583"
         id="path1028"
         inkscape:connector-curvature="0" />
      <path
         d="m -60.680168,234.46179 v -10.7551 h 2.093377 v 10.7551 z"
         style="font-style:normal;font-variant:normal;font-weight:bold;font-stretch:normal;font-size:15.1694px;line-height:1.125;font-family:Raleway;-inkscape-font-specification:'Raleway Bold';letter-spacing:3.05329px;word-spacing:0px;fill:#000000;stroke-width:0.264583"
         id="path251"
         inkscape:connector-curvature="0" />
      <path
         d="m -51.207852,227.55971 v 6.90208 h -2.093377 v -10.77027 h 1.623126 l 5.612678,7.06894 v -7.05377 h 2.093377 v 10.7551 h -1.698973 z"
         style="font-style:normal;font-variant:normal;font-weight:bold;font-stretch:normal;font-size:15.1694px;line-height:1.125;font-family:Raleway;-inkscape-font-specification:'Raleway Bold';letter-spacing:3.05329px;word-spacing:0px;fill:#000000;stroke-width:0.264583"
         id="path253"
         inkscape:connector-curvature="0" />
      <path
         d="m -32.231669,226.51303 q -0.106185,-0.10619 -0.394404,-0.28822 -0.273049,-0.18204 -0.682623,-0.3489 -0.394404,-0.18203 -0.864656,-0.30339 -0.470251,-0.12135 -0.955672,-0.12135 -0.864656,0 -1.289399,0.31856 -0.424743,0.31855 -0.424743,0.89499 0,0.33373 0.151694,0.56127 0.166863,0.21237 0.470251,0.37923 0.303388,0.16687 0.75847,0.30339 0.470252,0.13653 1.077028,0.28822 0.788808,0.21237 1.425923,0.45508 0.652284,0.24271 1.092197,0.60678 0.455082,0.36406 0.697793,0.87982 0.24271,0.50059 0.24271,1.24389 0,0.86466 -0.333727,1.4866 -0.318557,0.60678 -0.864656,0.98602 -0.546098,0.37923 -1.274229,0.56126 -0.728132,0.16687 -1.51694,0.16687 -1.213552,0 -2.396766,-0.36407 -1.183213,-0.36406 -2.123716,-1.03152 l 0.925334,-1.80516 q 0.136524,0.13653 0.485421,0.36407 0.364065,0.21237 0.849486,0.43991 0.485421,0.21237 1.077027,0.36407 0.591607,0.15169 1.213552,0.15169 1.729312,0 1.729312,-1.10736 0,-0.36407 -0.197202,-0.60678 -0.197202,-0.24271 -0.561268,-0.42474 -0.364066,-0.18204 -0.879825,-0.33373 -0.51576,-0.15169 -1.152875,-0.31856 -0.773639,-0.21237 -1.350076,-0.45508 -0.561268,-0.25788 -0.940503,-0.59161 -0.379235,-0.33372 -0.576437,-0.78881 -0.182033,-0.45508 -0.182033,-1.07702 0,-0.81915 0.303388,-1.45627 0.303388,-0.63711 0.834317,-1.06185 0.546098,-0.42475 1.25906,-0.63712 0.712962,-0.22754 1.53211,-0.22754 1.137705,0 2.093377,0.36407 0.955672,0.34889 1.668634,0.83431 z"
         style="font-style:normal;font-variant:normal;font-weight:bold;font-stretch:normal;font-size:15.1694px;line-height:1.125;font-family:Raleway;-inkscape-font-specification:'Raleway Bold';letter-spacing:3.05329px;word-spacing:0px;fill:#000000;stroke-width:0.264583"
         id="path255"
         inkscape:connector-curvature="0" />
      <path
         d="m -18.281772,225.52702 h -3.428284 v 8.93477 h -2.093378 v -8.93477 h -3.443453 v -1.8355 h 8.965115 z"
         style="font-style:normal;font-variant:normal;font-weight:bold;font-stretch:normal;font-size:15.1694px;line-height:1.125;font-family:Raleway;-inkscape-font-specification:'Raleway Bold';letter-spacing:3.05329px;word-spacing:0px;fill:#000000;stroke-width:0.264583"
         id="path257"
         inkscape:connector-curvature="0" />
      <path
         d="m -13.891441,234.46179 v -10.7551 h 2.093377 v 10.7551 z"
         style="font-style:normal;font-variant:normal;font-weight:bold;font-stretch:normal;font-size:15.1694px;line-height:1.125;font-family:Raleway;-inkscape-font-specification:'Raleway Bold';letter-spacing:3.05329px;word-spacing:0px;fill:#000000;stroke-width:0.264583"
         id="path259"
         inkscape:connector-curvature="0" />
      <path
         d="m 1.5424468,225.52702 h -3.4282844 v 8.93477 h -2.0933772 v -8.93477 h -3.4434539 v -1.8355 h 8.9651155 z"
         style="font-style:normal;font-variant:normal;font-weight:bold;font-stretch:normal;font-size:15.1694px;line-height:1.125;font-family:Raleway;-inkscape-font-specification:'Raleway Bold';letter-spacing:3.05329px;word-spacing:0px;fill:#000000;stroke-width:0.264583"
         id="path261"
         inkscape:connector-curvature="0" />
      <path
         d="m 10.468428,232.68697 q 0.743301,0 1.243891,-0.30339 0.515759,-0.30338 0.819147,-0.7888 0.318558,-0.48543 0.439913,-1.10737 0.136525,-0.63712 0.136525,-1.30457 v -5.49132 h 2.078207 v 5.49132 q 0,1.10737 -0.273049,2.07821 -0.25788,0.97084 -0.834317,1.69897 -0.561268,0.72813 -1.456262,1.15288 -0.894995,0.42474 -2.138886,0.42474 -1.2893986,0 -2.1995627,-0.43991 -0.8949946,-0.45509 -1.4562624,-1.18322 -0.5612678,-0.7433 -0.8191476,-1.71414 -0.2427104,-0.97084 -0.2427104,-2.01753 v -5.49132 h 2.0933772 v 5.49132 q 0,0.68262 0.1213552,1.31974 0.1365246,0.62194 0.4399127,1.10736 0.3185574,0.48543 0.8191476,0.78881 0.5005902,0.28822 1.2287214,0.28822 z"
         style="font-style:normal;font-variant:normal;font-weight:bold;font-stretch:normal;font-size:15.1694px;line-height:1.125;font-family:Raleway;-inkscape-font-specification:'Raleway Bold';letter-spacing:3.05329px;word-spacing:0px;fill:#000000;stroke-width:0.264583"
         id="path263"
         inkscape:connector-curvature="0" />
      <path
         d="m 28.38844,225.52702 h -3.428285 v 8.93477 h -2.093377 v -8.93477 h -3.443454 v -1.8355 h 8.965116 z"
         style="font-style:normal;font-variant:normal;font-weight:bold;font-stretch:normal;font-size:15.1694px;line-height:1.125;font-family:Raleway;-inkscape-font-specification:'Raleway Bold';letter-spacing:3.05329px;word-spacing:0px;fill:#000000;stroke-width:0.264583"
         id="path265"
         inkscape:connector-curvature="0" />
      <path
         d="m -60.680168,251.52737 v -10.77028 h 4.565989 q 0.743301,0 1.365246,0.31856 0.637115,0.30339 1.092197,0.81915 0.455082,0.50059 0.712962,1.15287 0.25788,0.63712 0.25788,1.2894 0,0.68262 -0.242711,1.33491 -0.24271,0.63711 -0.682623,1.1377 -0.439912,0.50059 -1.061858,0.80398 -0.621945,0.30339 -1.365246,0.30339 h -2.548459 v 3.61032 z m 2.093377,-5.44582 h 2.427104 q 0.576437,0 0.955672,-0.47025 0.394405,-0.47025 0.394405,-1.27423 0,-0.40957 -0.121356,-0.72813 -0.121355,-0.33373 -0.318557,-0.56127 -0.197202,-0.22754 -0.470251,-0.33372 -0.25788,-0.12136 -0.530929,-0.12136 h -2.336088 z"
         style="font-style:normal;font-variant:normal;font-weight:bold;font-stretch:normal;font-size:15.1694px;line-height:1.125;font-family:Raleway;-inkscape-font-specification:'Raleway Bold';letter-spacing:3.57188px;word-spacing:0px;fill:#000000;stroke-width:0.264583"
         id="path267"
         inkscape:connector-curvature="0" />
      <path
         d="m -43.211695,251.60321 q -1.137705,0 -2.078208,-0.45508 -0.940503,-0.47025 -1.623126,-1.22872 -0.667454,-0.77364 -1.031519,-1.75965 -0.364066,-0.98601 -0.364066,-2.01753 0,-1.07703 0.379235,-2.06304 0.394405,-0.98601 1.077028,-1.74448 0.697792,-0.75847 1.638295,-1.19838 0.940503,-0.45508 2.047869,-0.45508 1.137705,0 2.078208,0.48542 0.940502,0.47025 1.607956,1.24389 0.667454,0.77364 1.031519,1.75965 0.364066,0.98601 0.364066,2.00236 0,1.07703 -0.394405,2.06304 -0.379235,0.97084 -1.061858,1.72931 -0.682623,0.7433 -1.623125,1.19838 -0.940503,0.43991 -2.047869,0.43991 z m -2.988372,-5.46098 q 0,0.69779 0.197202,1.35008 0.212372,0.65228 0.591607,1.15287 0.394404,0.50059 0.955672,0.80398 0.561268,0.30339 1.274229,0.30339 0.728132,0 1.27423,-0.30339 0.561268,-0.31856 0.940503,-0.83432 0.379235,-0.51576 0.576437,-1.15287 0.197202,-0.65229 0.197202,-1.31974 0,-0.69779 -0.212371,-1.35008 -0.212372,-0.65228 -0.606776,-1.15287 -0.379235,-0.50059 -0.940503,-0.78881 -0.546099,-0.30339 -1.243891,-0.30339 -0.728131,0 -1.289399,0.31856 -0.546098,0.30339 -0.940503,0.81915 -0.379235,0.50059 -0.576437,1.15287 -0.197202,0.63712 -0.197202,1.30457 z"
         style="font-style:normal;font-variant:normal;font-weight:bold;font-stretch:normal;font-size:15.1694px;line-height:1.125;font-family:Raleway;-inkscape-font-specification:'Raleway Bold';letter-spacing:3.57188px;word-spacing:0px;fill:#000000;stroke-width:0.264583"
         id="path269"
         inkscape:connector-curvature="0" />
      <path
         d="m -32.885878,251.52737 v -10.77028 h 2.093378 v 8.93478 h 5.491322 v 1.8355 z"
         style="font-style:normal;font-variant:normal;font-weight:bold;font-stretch:normal;font-size:15.1694px;line-height:1.125;font-family:Raleway;-inkscape-font-specification:'Raleway Bold';letter-spacing:3.57188px;word-spacing:0px;fill:#000000;stroke-width:0.264583"
         id="path271"
         inkscape:connector-curvature="0" />
      <path
         d="m -20.844495,240.75709 2.654645,5.18794 2.700154,-5.18794 h 2.26024 l -3.913705,7.00827 v 3.76201 h -2.078208 v -3.79235 l -3.898536,-6.97793 z"
         style="font-style:normal;font-variant:normal;font-weight:bold;font-stretch:normal;font-size:15.1694px;line-height:1.125;font-family:Raleway;-inkscape-font-specification:'Raleway Bold';letter-spacing:3.57188px;word-spacing:0px;fill:#000000;stroke-width:0.264583"
         id="path273"
         inkscape:connector-curvature="0" />
      <path
         d="M -0.5327065,242.59259 H -3.960991 v 8.93478 h -2.0933772 v -8.93478 H -9.497822 v -1.8355 h 8.9651155 z"
         style="font-style:normal;font-variant:normal;font-weight:bold;font-stretch:normal;font-size:15.1694px;line-height:1.125;font-family:Raleway;-inkscape-font-specification:'Raleway Bold';letter-spacing:3.57188px;word-spacing:0px;fill:#000000;stroke-width:0.264583"
         id="path275"
         inkscape:connector-curvature="0" />
      <path
         d="m 11.854727,249.69187 v 1.8355 H 4.376213 v -10.77028 h 7.34199 v 1.8355 H 6.4695902 v 2.59397 h 4.5356508 v 1.69897 H 6.4695902 v 2.80634 z"
         style="font-style:normal;font-variant:normal;font-weight:bold;font-stretch:normal;font-size:15.1694px;line-height:1.125;font-family:Raleway;-inkscape-font-specification:'Raleway Bold';letter-spacing:3.57188px;word-spacing:0px;fill:#000000;stroke-width:0.264583"
         id="path277"
         inkscape:connector-curvature="0" />
      <path
         d="m 16.465951,246.06638 q 0,-0.98601 0.348896,-1.94168 0.348896,-0.97084 1.00118,-1.72931 0.667454,-0.75847 1.623126,-1.22872 0.955672,-0.47025 2.184394,-0.47025 1.441093,0 2.487781,0.65228 1.061858,0.65228 1.562449,1.69897 l -1.607957,1.10737 q -0.182033,-0.45508 -0.470251,-0.75847 -0.288219,-0.31856 -0.637115,-0.50059 -0.333727,-0.18203 -0.697793,-0.25788 -0.364065,-0.091 -0.697792,-0.091 -0.743301,0 -1.304568,0.31856 -0.561268,0.31856 -0.940503,0.83432 -0.364066,0.50059 -0.561268,1.15287 -0.182033,0.63712 -0.182033,1.27423 0,0.71296 0.212372,1.38042 0.227541,0.65228 0.621945,1.15287 0.409574,0.50059 0.970842,0.80398 0.561268,0.30339 1.228721,0.30339 0.348896,0 0.712962,-0.091 0.364066,-0.091 0.697792,-0.28822 0.348897,-0.1972 0.637115,-0.50059 0.288219,-0.31856 0.470252,-0.75847 l 1.714142,0.98601 q -0.24271,0.60678 -0.712962,1.07703 -0.455082,0.45508 -1.046688,0.77364 -0.591607,0.31856 -1.243891,0.48542 -0.652285,0.16686 -1.289399,0.16686 -1.122536,0 -2.063039,-0.48542 -0.925333,-0.48542 -1.607956,-1.25906 -0.667454,-0.78881 -1.046689,-1.77482 -0.364065,-1.00118 -0.364065,-2.0327 z"
         style="font-style:normal;font-variant:normal;font-weight:bold;font-stretch:normal;font-size:15.1694px;line-height:1.125;font-family:Raleway;-inkscape-font-specification:'Raleway Bold';letter-spacing:3.57188px;word-spacing:0px;fill:#000000;stroke-width:0.264583"
         id="path279"
         inkscape:connector-curvature="0" />
      <path
         d="m 39.893389,240.75709 v 10.77028 h -2.078208 v -4.59633 h -4.884546 v 4.59633 h -2.093378 v -10.77028 h 2.093378 v 4.35362 h 4.884546 v -4.35362 z"
         style="font-style:normal;font-variant:normal;font-weight:bold;font-stretch:normal;font-size:15.1694px;line-height:1.125;font-family:Raleway;-inkscape-font-specification:'Raleway Bold';letter-spacing:3.57188px;word-spacing:0px;fill:#000000;stroke-width:0.264583"
         id="path281"
         inkscape:connector-curvature="0" />
      <path
         d="m 47.790681,244.62529 v 6.90208 h -2.093377 v -10.77028 h 1.623126 l 5.612678,7.06894 v -7.05377 h 2.093377 v 10.75511 h -1.698973 z"
         style="font-style:normal;font-variant:normal;font-weight:bold;font-stretch:normal;font-size:15.1694px;line-height:1.125;font-family:Raleway;-inkscape-font-specification:'Raleway Bold';letter-spacing:3.57188px;word-spacing:0px;fill:#000000;stroke-width:0.264583"
         id="path283"
         inkscape:connector-curvature="0" />
      <path
         d="m 60.85363,251.52737 v -10.75511 h 2.093377 v 10.75511 z"
         style="font-style:normal;font-variant:normal;font-weight:bold;font-stretch:normal;font-size:15.1694px;line-height:1.125;font-family:Raleway;-inkscape-font-specification:'Raleway Bold';letter-spacing:3.57188px;word-spacing:0px;fill:#000000;stroke-width:0.264583"
         id="path285"
         inkscape:connector-curvature="0" />
      <path
         d="m 75.926278,250.79924 q -0.576437,0.37923 -1.25906,0.5916 -0.667454,0.21237 -1.441093,0.21237 -1.137705,0 -2.078208,-0.47025 -0.940503,-0.47025 -1.623126,-1.22872 -0.667453,-0.75847 -1.031519,-1.74448 -0.364065,-0.98601 -0.364065,-2.01753 0,-1.07703 0.379235,-2.06304 0.394404,-0.98601 1.077027,-1.74448 0.697792,-0.75847 1.638295,-1.19838 0.940503,-0.45508 2.047869,-0.45508 1.137705,0 2.078208,0.48542 0.940503,0.47025 1.607956,1.24389 0.667454,0.77364 1.03152,1.75965 0.364065,0.98601 0.364065,2.00236 0,1.03152 -0.348896,1.97202 -0.333727,0.92533 -0.970842,1.66864 l 1.53211,1.71414 h -1.987192 z m -2.669814,-1.04669 q 0.773639,0 1.395585,-0.37924 l -1.623126,-1.8355 h 1.987191 l 0.667454,0.75847 q 0.561268,-0.98601 0.561268,-2.15405 0,-0.69779 -0.212372,-1.35008 -0.212372,-0.65228 -0.606776,-1.15287 -0.379235,-0.50059 -0.940503,-0.80398 -0.546098,-0.30339 -1.243891,-0.30339 -0.728131,0 -1.289399,0.31856 -0.546098,0.30339 -0.940502,0.81915 -0.379235,0.51576 -0.576438,1.16804 -0.197202,0.63712 -0.197202,1.30457 0,0.69779 0.197202,1.35008 0.212372,0.65228 0.591607,1.15287 0.394404,0.50059 0.955672,0.80398 0.561268,0.30339 1.27423,0.30339 z"
         style="font-style:normal;font-variant:normal;font-weight:bold;font-stretch:normal;font-size:15.1694px;line-height:1.125;font-family:Raleway;-inkscape-font-specification:'Raleway Bold';letter-spacing:3.57188px;word-spacing:0px;fill:#000000;stroke-width:0.264583"
         id="path287"
         inkscape:connector-curvature="0" />
      <path
         d="m 88.117232,249.75255 q 0.7433,0 1.243891,-0.30339 0.515759,-0.30339 0.819147,-0.78881 0.318558,-0.48542 0.439913,-1.10737 0.136524,-0.63711 0.136524,-1.30456 v -5.49133 h 2.078208 v 5.49133 q 0,1.10736 -0.273049,2.0782 -0.25788,0.97085 -0.834317,1.69898 -0.561268,0.72813 -1.456262,1.15287 -0.894995,0.42474 -2.138886,0.42474 -1.289399,0 -2.199563,-0.43991 -0.894995,-0.45508 -1.456262,-1.18321 -0.561268,-0.7433 -0.819148,-1.71414 -0.24271,-0.97085 -0.24271,-2.01753 v -5.49133 h 2.093377 v 5.49133 q 0,0.68262 0.121355,1.31973 0.136525,0.62195 0.439913,1.10737 0.318557,0.48542 0.819147,0.78881 0.50059,0.28822 1.228722,0.28822 z"
         style="font-style:normal;font-variant:normal;font-weight:bold;font-stretch:normal;font-size:15.1694px;line-height:1.125;font-family:Raleway;-inkscape-font-specification:'Raleway Bold';letter-spacing:3.57188px;word-spacing:0px;fill:#000000;stroke-width:0.264583"
         id="path289"
         inkscape:connector-curvature="0" />
      <path
         d="m 105.97939,249.69187 v 1.8355 h -7.478513 v -10.77028 h 7.341993 v 1.8355 h -5.24862 v 2.59397 h 4.53566 v 1.69897 h -4.53566 v 2.80634 z"
         style="font-style:normal;font-variant:normal;font-weight:bold;font-stretch:normal;font-size:15.1694px;line-height:1.125;font-family:Raleway;-inkscape-font-specification:'Raleway Bold';letter-spacing:3.57188px;word-spacing:0px;fill:#000000;stroke-width:0.264583"
         id="path291"
         inkscape:connector-curvature="0" />
      <path
         d="m -60.87737,268.59294 v -10.77027 h 4.141246 q 1.334907,0 2.351257,0.42474 1.01635,0.42474 1.698973,1.15288 0.682623,0.72813 1.031519,1.71414 0.348896,0.97084 0.348896,2.07821 0,1.22872 -0.394404,2.2299 -0.379235,0.98601 -1.092197,1.69897 -0.712962,0.69779 -1.714142,1.0922 -1.001181,0.37923 -2.229902,0.37923 z m 6.56835,-5.4003 q 0,-0.62195 -0.166864,-1.13771 -0.166863,-0.51576 -0.48542,-0.87982 -0.303388,-0.36407 -0.75847,-0.56127 -0.455082,-0.21237 -1.01635,-0.21237 h -1.183213 v 5.61267 h 1.183213 q 0.576437,0 1.031519,-0.21237 0.455082,-0.21237 0.75847,-0.5916 0.318557,-0.37924 0.470251,-0.895 0.166864,-0.51576 0.166864,-1.12253 z"
         style="font-style:normal;font-variant:normal;font-weight:900;font-stretch:normal;font-size:15.1694px;line-height:1.125;font-family:Raleway;-inkscape-font-specification:'Raleway Heavy';letter-spacing:4.7625px;word-spacing:0px;fill:#000000;stroke-width:0.264583"
         id="path293"
         inkscape:connector-curvature="0" />
      <path
         d="m -37.565775,266.01414 v 2.5788 h -7.675717 v -10.77027 h 7.539192 v 2.5788 h -4.581159 v 1.51694 h 3.913705 v 2.39676 h -3.913705 v 1.69897 z"
         style="font-style:normal;font-variant:normal;font-weight:900;font-stretch:normal;font-size:15.1694px;line-height:1.125;font-family:Raleway;-inkscape-font-specification:'Raleway Heavy';letter-spacing:4.7625px;word-spacing:0px;fill:#000000;stroke-width:0.264583"
         id="path295"
         inkscape:connector-curvature="0" />
      <path
         d="m -23.243215,268.59294 v -10.77027 h 4.641836 q 0.788809,0 1.456263,0.33373 0.667453,0.31855 1.137705,0.84948 0.485421,0.51576 0.75847,1.19838 0.273049,0.66746 0.273049,1.35008 0,0.71296 -0.25788,1.39559 -0.25788,0.66745 -0.728131,1.19838 -0.455082,0.51576 -1.122536,0.83432 -0.652284,0.30338 -1.441093,0.30338 h -1.75965 v 3.30693 z m 2.958033,-5.88572 h 1.562448 q 0.273049,0 0.50059,-0.24272 0.242711,-0.25788 0.242711,-0.91016 0,-0.66745 -0.27305,-0.91016 -0.273049,-0.24271 -0.546098,-0.24271 h -1.486601 z"
         style="font-style:normal;font-variant:normal;font-weight:900;font-stretch:normal;font-size:15.1694px;line-height:1.125;font-family:Raleway;-inkscape-font-specification:'Raleway Heavy';letter-spacing:4.7625px;word-spacing:0px;fill:#000000;stroke-width:0.264583"
         id="path297"
         inkscape:connector-curvature="0" />
      <path
         d="m -10.964991,268.59294 4.0198913,-10.77027 h 2.3967652 l 4.00472169,10.77027 H -3.6685093 l -0.6522842,-2.10854 h -2.8670166 l -0.6371148,2.10854 z m 5.2182739,-7.69088 -1.0011804,3.61031 h 1.9568526 z"
         style="font-style:normal;font-variant:normal;font-weight:900;font-stretch:normal;font-size:15.1694px;line-height:1.125;font-family:Raleway;-inkscape-font-specification:'Raleway Heavy';letter-spacing:4.7625px;word-spacing:0px;fill:#000000;stroke-width:0.264583"
         id="path299"
         inkscape:connector-curvature="0" />
      <path
         d="m 5.0361427,268.59294 v -10.77027 h 4.9452245 q 0.7888088,0 1.4562628,0.33373 0.667453,0.31855 1.137705,0.84948 0.48542,0.51576 0.75847,1.19838 0.273049,0.66746 0.273049,1.35008 0,0.9405 -0.409574,1.75965 -0.409574,0.80398 -1.137705,1.31974 l 2.427104,3.95921 H 11.149411 L 9.101542,265.28601 H 7.9941758 v 3.30693 z m 2.9580331,-5.88572 H 9.860012 q 0.273049,0 0.50059,-0.30339 0.242711,-0.30339 0.242711,-0.84949 0,-0.56127 -0.27305,-0.84949 -0.273049,-0.30338 -0.546098,-0.30338 H 7.9941758 Z"
         style="font-style:normal;font-variant:normal;font-weight:900;font-stretch:normal;font-size:15.1694px;line-height:1.125;font-family:Raleway;-inkscape-font-specification:'Raleway Heavy';letter-spacing:4.7625px;word-spacing:0px;fill:#000000;stroke-width:0.264583"
         id="path301"
         inkscape:connector-curvature="0" />
      <path
         d="m 20.197977,268.59294 v -10.77027 h 2.958033 v 10.77027 z"
         style="font-style:normal;font-variant:normal;font-weight:900;font-stretch:normal;font-size:15.1694px;line-height:1.125;font-family:Raleway;-inkscape-font-specification:'Raleway Heavy';letter-spacing:4.7625px;word-spacing:0px;fill:#000000;stroke-width:0.264583"
         id="path303"
         inkscape:connector-curvature="0" />
      <path
         d="m 36.283007,261.34197 q -0.455082,-0.27305 -0.940503,-0.48542 -0.409574,-0.18203 -0.925333,-0.33373 -0.500591,-0.16686 -0.986011,-0.16686 -0.394405,0 -0.637115,0.12135 -0.227541,0.12136 -0.227541,0.40958 0,0.21237 0.136524,0.34889 0.136525,0.13653 0.394405,0.25788 0.25788,0.10619 0.621945,0.21237 0.379235,0.10619 0.849487,0.25788 0.7433,0.22755 1.334907,0.50059 0.606776,0.27305 1.031519,0.65229 0.424743,0.36406 0.652284,0.89499 0.227541,0.53093 0.227541,1.2894 0,0.97084 -0.364065,1.6383 -0.348897,0.65228 -0.940503,1.04669 -0.576437,0.3944 -1.319738,0.57643 -0.728131,0.16687 -1.471432,0.16687 -0.591607,0 -1.213552,-0.091 -0.621945,-0.091 -1.243891,-0.25788 -0.606776,-0.16686 -1.183213,-0.3944 -0.561268,-0.22754 -1.046689,-0.51576 l 1.27423,-2.59397 q 0.530929,0.33373 1.107366,0.59161 0.485421,0.22754 1.092197,0.40957 0.621945,0.18203 1.25906,0.18203 0.485421,0 0.667454,-0.12135 0.197202,-0.13653 0.197202,-0.3489 0,-0.22754 -0.197202,-0.37923 -0.182033,-0.16687 -0.51576,-0.28822 -0.333726,-0.12136 -0.773639,-0.24271 -0.424743,-0.12136 -0.910164,-0.28822 -0.712962,-0.24271 -1.228722,-0.51576 -0.515759,-0.28822 -0.849486,-0.63712 -0.333727,-0.36406 -0.50059,-0.81914 -0.151694,-0.45509 -0.151694,-1.04669 0,-0.895 0.318557,-1.57762 0.333727,-0.68262 0.894995,-1.1377 0.561268,-0.45509 1.274229,-0.68263 0.728132,-0.24271 1.53211,-0.24271 0.591607,0 1.152874,0.12136 0.561268,0.10618 1.077028,0.28822 0.530929,0.16686 0.986011,0.37923 0.455082,0.1972 0.819147,0.37924 z"
         style="font-style:normal;font-variant:normal;font-weight:900;font-stretch:normal;font-size:15.1694px;line-height:1.125;font-family:Raleway;-inkscape-font-specification:'Raleway Heavy';letter-spacing:4.7625px;word-spacing:0px;fill:#000000;stroke-width:0.264583"
         id="path305"
         inkscape:connector-curvature="0" />
      <path
         d="m -116.21287,267.67883 -2.13613,3.0843 -0.60033,-0.41578 2.13613,-3.0843 z"
         style="font-style:normal;font-variant:normal;font-weight:bold;font-stretch:normal;font-size:5.29167px;line-height:1.25;font-family:Raleway;-inkscape-font-specification:'Raleway Bold';letter-spacing:1.47373px;word-spacing:11.1125px;fill:#000000;stroke-width:0.264583"
         id="path208"
         inkscape:connector-curvature="0" />
      <path
         d="m -120.82052,267.13697 1.67337,-1.73116 0.52505,0.50753 -2.61118,2.70137 -0.40711,-0.39352 0.30606,-3.13377 -1.71014,1.76921 -0.52505,-0.50752 2.6075,-2.69757 0.42614,0.4119 z"
         style="font-style:normal;font-variant:normal;font-weight:bold;font-stretch:normal;font-size:5.29167px;line-height:1.25;font-family:Raleway;-inkscape-font-specification:'Raleway Bold';letter-spacing:1.47373px;word-spacing:11.1125px;fill:#000000;stroke-width:0.264583"
         id="path210"
         inkscape:connector-curvature="0" />
      <path
         d="m -125.9547,261.62861 q -0.009,0.0515 -0.005,0.17035 0.002,0.11446 0.0352,0.26509 0.026,0.14929 0.0844,0.30831 0.0584,0.15903 0.15469,0.29834 0.17147,0.24814 0.34712,0.30686 0.17565,0.0587 0.34109,-0.0556 0.0958,-0.0662 0.13099,-0.15484 0.0279,-0.09 0.0156,-0.21017 -0.0123,-0.12015 -0.0633,-0.27783 -0.0541,-0.16203 -0.13087,-0.36625 -0.0955,-0.26849 -0.15217,-0.49947 -0.0597,-0.23533 -0.0425,-0.43378 0.0142,-0.2028 0.11412,-0.37473 0.0955,-0.16893 0.30885,-0.31633 0.24815,-0.17147 0.49282,-0.19903 0.23731,-0.0289 0.45444,0.0526 0.21713,0.0815 0.41377,0.25438 0.19228,0.17588 0.34871,0.40226 0.24066,0.34827 0.37082,0.76003 0.13016,0.41177 0.12512,0.81404 l -0.70156,0.0924 q 0.0121,-0.0662 0.008,-0.2115 -0.0113,-0.1466 -0.0422,-0.33103 -0.0353,-0.18143 -0.1091,-0.38129 -0.0738,-0.19987 -0.19712,-0.37836 -0.34294,-0.49629 -0.66074,-0.27669 -0.10448,0.0722 -0.13503,0.17692 -0.0305,0.10473 -0.0106,0.24531 0.0199,0.14058 0.0787,0.31868 0.0588,0.1781 0.1372,0.39403 0.0925,0.26414 0.13713,0.4777 0.0373,0.21222 0.0167,0.38724 -0.0206,0.17501 -0.11207,0.32186 -0.0945,0.14248 -0.27299,0.26582 -0.23509,0.16245 -0.4781,0.20172 -0.243,0.0393 -0.47019,-0.0289 -0.23019,-0.0725 -0.43252,-0.23499 -0.20669,-0.15949 -0.36914,-0.39457 -0.22561,-0.32651 -0.31065,-0.67297 -0.0894,-0.34346 -0.0915,-0.64433 z"
         style="font-style:normal;font-variant:normal;font-weight:bold;font-stretch:normal;font-size:5.29167px;line-height:1.25;font-family:Raleway;-inkscape-font-specification:'Raleway Bold';letter-spacing:1.47373px;word-spacing:11.1125px;fill:#000000;stroke-width:0.264583"
         id="path212"
         inkscape:connector-curvature="0" />
      <path
         d="m -128.89822,256.62768 0.4903,1.09078 2.84281,-1.27783 0.29939,0.66606 -2.84281,1.27783 0.49248,1.09562 -0.58401,0.2625 -1.28217,-2.85245 z"
         style="font-style:normal;font-variant:normal;font-weight:bold;font-stretch:normal;font-size:5.29167px;line-height:1.25;font-family:Raleway;-inkscape-font-specification:'Raleway Bold';letter-spacing:1.47373px;word-spacing:11.1125px;fill:#000000;stroke-width:0.264583"
         id="path214"
         inkscape:connector-curvature="0" />
      <path
         d="m -126.63476,253.49415 -3.61141,1.0167 -0.19789,-0.70293 3.61141,-1.01669 z"
         style="font-style:normal;font-variant:normal;font-weight:bold;font-stretch:normal;font-size:5.29167px;line-height:1.25;font-family:Raleway;-inkscape-font-specification:'Raleway Bold';letter-spacing:1.47373px;word-spacing:11.1125px;fill:#000000;stroke-width:0.264583"
         id="path216"
         inkscape:connector-curvature="0" />
      <path
         d="m -130.79222,248.20265 0.15118,1.18633 3.09179,-0.39402 0.0923,0.72439 -3.09179,0.39402 0.15185,1.19157 -0.63515,0.081 -0.39536,-3.10229 z"
         style="font-style:normal;font-variant:normal;font-weight:bold;font-stretch:normal;font-size:5.29167px;line-height:1.25;font-family:Raleway;-inkscape-font-specification:'Raleway Bold';letter-spacing:1.47373px;word-spacing:11.1125px;fill:#000000;stroke-width:0.264583"
         id="path218"
         inkscape:connector-curvature="0" />
      <path
         d="m -128.26984,244.24162 q 0.0177,-0.25869 -0.0759,-0.44014 -0.0933,-0.18673 -0.25499,-0.3039 -0.16134,-0.12244 -0.37489,-0.1795 -0.21848,-0.0627 -0.45077,-0.0786 l -1.9111,-0.13097 0.0496,-0.72326 1.91111,0.13097 q 0.38538,0.0264 0.71675,0.14459 0.33172,0.1129 0.57138,0.33088 0.24002,0.2127 0.36649,0.5343 0.12648,0.32161 0.0968,0.75451 -0.0308,0.44874 -0.20555,0.75501 -0.17973,0.30062 -0.44652,0.47859 -0.27207,0.17761 -0.61609,0.2442 -0.34367,0.0613 -0.70794,0.0363 l -1.9111,-0.13096 0.0499,-0.72854 1.91111,0.13096 q 0.23756,0.0163 0.46219,-0.0108 0.21971,-0.0327 0.39588,-0.12669 0.17653,-0.0993 0.29406,-0.26627 0.11224,-0.16734 0.12961,-0.42074 z"
         style="font-style:normal;font-variant:normal;font-weight:bold;font-stretch:normal;font-size:5.29167px;line-height:1.25;font-family:Raleway;-inkscape-font-specification:'Raleway Bold';letter-spacing:1.47373px;word-spacing:11.1125px;fill:#000000;stroke-width:0.264583"
         id="path220"
         inkscape:connector-curvature="0" />
      <path
         d="m -129.41388,236.94808 -0.31005,1.15503 3.01022,0.80806 -0.18932,0.70528 -3.01023,-0.80806 -0.31142,1.16014 -0.6184,-0.16601 0.8108,-3.02044 z"
         style="font-style:normal;font-variant:normal;font-weight:bold;font-stretch:normal;font-size:5.29167px;line-height:1.25;font-family:Raleway;-inkscape-font-specification:'Raleway Bold';letter-spacing:1.47373px;word-spacing:11.1125px;fill:#000000;stroke-width:0.264583"
         id="path222"
         inkscape:connector-curvature="0" />
      <path
         d="m -117.35104,225.25061 -2.11067,-3.10817 1.31768,-0.89481 q 0.21451,-0.14567 0.45643,-0.17562 0.24332,-0.0373 0.47572,0.0223 0.22944,0.0553 0.43169,0.19299 0.19927,0.13333 0.3271,0.32157 0.13378,0.19699 0.19157,0.4328 0.0548,0.23143 0.026,0.4621 -0.0288,0.23068 -0.14888,0.44012 -0.12003,0.20944 -0.33454,0.3551 l -0.73546,0.49943 0.70753,1.04189 z m -0.4631,-1.98184 0.70043,-0.47565 q 0.16635,-0.11296 0.18364,-0.32299 0.0217,-0.213 -0.13589,-0.44502 -0.0803,-0.1182 -0.17772,-0.18635 -0.10042,-0.0725 -0.20193,-0.0995 -0.1015,-0.027 -0.20111,-0.004 -0.0982,0.0155 -0.177,0.069 l -0.67416,0.4578 z"
         style="font-style:normal;font-variant:normal;font-weight:bold;font-stretch:normal;font-size:5.29167px;line-height:1.25;font-family:Raleway;-inkscape-font-specification:'Raleway Bold';letter-spacing:1.47373px;word-spacing:11.1125px;fill:#000000;stroke-width:0.264583"
         id="path224"
         inkscape:connector-curvature="0" />
      <path
         d="m -111.86016,222.15049 q -0.36538,0.15496 -0.7294,0.13691 -0.36609,-0.0229 -0.68862,-0.17353 -0.31972,-0.15755 -0.57094,-0.42462 -0.25122,-0.26707 -0.39171,-0.59834 -0.14669,-0.34589 -0.1592,-0.7142 -0.008,-0.37038 0.10829,-0.70693 0.12079,-0.33863 0.36291,-0.608 0.24006,-0.27425 0.59569,-0.42508 0.36538,-0.15495 0.73353,-0.12716 0.3661,0.0229 0.68582,0.18047 0.31972,0.15755 0.57094,0.42462 0.25122,0.26707 0.38964,0.59347 0.1467,0.34589 0.15433,0.71626 0.0104,0.36344 -0.10548,0.7 -0.11799,0.33168 -0.35804,0.60593 -0.24213,0.26938 -0.59776,0.4202 z m -1.70351,-1.34677 q 0.095,0.2241 0.24721,0.40672 0.15705,0.18055 0.34702,0.28966 0.19484,0.10705 0.41642,0.12804 0.22157,0.021 0.45054,-0.0761 0.23384,-0.0992 0.36789,-0.27099 0.13687,-0.17875 0.18841,-0.39604 0.0515,-0.21728 0.0281,-0.44875 -0.0255,-0.23634 -0.11642,-0.4507 -0.095,-0.22409 -0.25208,-0.40465 -0.15705,-0.18055 -0.35189,-0.2876 -0.18998,-0.10911 -0.40948,-0.12523 -0.2167,-0.023 -0.4408,0.072 -0.23384,0.0992 -0.3707,0.27792 -0.13406,0.17182 -0.19048,0.39117 -0.0536,0.21242 -0.0281,0.44876 0.0234,0.23147 0.11436,0.44582 z"
         style="font-style:normal;font-variant:normal;font-weight:bold;font-stretch:normal;font-size:5.29167px;line-height:1.25;font-family:Raleway;-inkscape-font-specification:'Raleway Bold';letter-spacing:1.47373px;word-spacing:11.1125px;fill:#000000;stroke-width:0.264583"
         id="path226"
         inkscape:connector-curvature="0" />
      <path
         d="m -108.25157,220.87855 -0.82219,-3.66602 0.71255,-0.1598 0.68207,3.04125 1.86916,-0.4192 0.14011,0.62477 z"
         style="font-style:normal;font-variant:normal;font-weight:bold;font-stretch:normal;font-size:5.29167px;line-height:1.25;font-family:Raleway;-inkscape-font-specification:'Raleway Bold';letter-spacing:1.47373px;word-spacing:11.1125px;fill:#000000;stroke-width:0.264583"
         id="path228"
         inkscape:connector-curvature="0" />
      <path
         d="m -104.07757,216.37501 1.01522,1.76127 0.85041,-1.85451 0.78748,-0.0393 -1.24153,2.50985 0.0655,1.3107 -0.72405,0.0362 -0.066,-1.32127 -1.47977,-2.36325 z"
         style="font-style:normal;font-variant:normal;font-weight:bold;font-stretch:normal;font-size:5.29167px;line-height:1.25;font-family:Raleway;-inkscape-font-specification:'Raleway Bold';letter-spacing:1.47373px;word-spacing:11.1125px;fill:#000000;stroke-width:0.264583"
         id="path230"
         inkscape:connector-curvature="0" />
      <path
         d="m -96.183132,217.40774 -1.184996,-0.16126 -0.420266,3.08833 -0.723582,-0.0985 0.420267,-3.08833 -1.190239,-0.16197 0.08634,-0.63444 3.098816,0.42169 z"
         style="font-style:normal;font-variant:normal;font-weight:bold;font-stretch:normal;font-size:5.29167px;line-height:1.25;font-family:Raleway;-inkscape-font-specification:'Raleway Bold';letter-spacing:1.47373px;word-spacing:11.1125px;fill:#000000;stroke-width:0.264583"
         id="path232"
         inkscape:connector-curvature="0" />
      <path
         d="m -92.036806,221.16987 -0.199826,0.60831 -2.478495,-0.81416 1.172529,-3.56944 2.433249,0.7993 -0.199826,0.60832 -1.739471,-0.57141 -0.282398,0.85969 1.503185,0.49378 -0.184962,0.56306 -1.503185,-0.49378 -0.305518,0.93007 z"
         style="font-style:normal;font-variant:normal;font-weight:bold;font-stretch:normal;font-size:5.29167px;line-height:1.25;font-family:Raleway;-inkscape-font-specification:'Raleway Bold';letter-spacing:1.47373px;word-spacing:11.1125px;fill:#000000;stroke-width:0.264583"
         id="path234"
         inkscape:connector-curvature="0" />
      <path
         d="m -89.620892,220.82947 q 0.166023,-0.30123 0.43353,-0.53445 0.270061,-0.23786 0.597051,-0.35975 0.331624,-0.11934 0.702773,-0.10209 0.371148,0.0173 0.746536,0.22414 0.440269,0.24265 0.650213,0.61817 0.214578,0.37807 0.191274,0.78214 l -0.677705,0.0676 q 0.02101,-0.16968 -0.01596,-0.3109 -0.03441,-0.14585 -0.110356,-0.26021 -0.07131,-0.1118 -0.169762,-0.19628 -0.0959,-0.0891 -0.197858,-0.1453 -0.227086,-0.12515 -0.452198,-0.12234 -0.225112,0.003 -0.427815,0.0965 -0.195515,0.0916 -0.365593,0.25771 -0.16289,0.16399 -0.270166,0.35864 -0.120048,0.21781 -0.167551,0.45749 -0.04031,0.23759 -0.0041,0.45693 0.04084,0.2219 0.16123,0.4091 0.120389,0.18719 0.324303,0.29958 0.106592,0.0587 0.233143,0.0922 0.126551,0.0335 0.261713,0.0294 0.139796,-0.001 0.278934,-0.0457 0.141692,-0.0488 0.271377,-0.15254 l 0.357666,0.58986 q -0.176319,0.14451 -0.399166,0.209 -0.215659,0.0624 -0.450039,0.0601 -0.234381,-0.002 -0.461757,-0.0611 -0.227376,-0.0589 -0.422021,-0.16613 -0.342947,-0.18901 -0.548546,-0.49568 -0.200965,-0.3041 -0.279249,-0.6554 -0.0711,-0.35337 -0.02093,-0.71846 0.05735,-0.36718 0.231038,-0.68232 z"
         style="font-style:normal;font-variant:normal;font-weight:bold;font-stretch:normal;font-size:5.29167px;line-height:1.25;font-family:Raleway;-inkscape-font-specification:'Raleway Bold';letter-spacing:1.47373px;word-spacing:11.1125px;fill:#000000;stroke-width:0.264583"
         id="path236"
         inkscape:connector-curvature="0" />
      <path
         d="m -81.212755,224.37598 -2.426124,2.86873 -0.553544,-0.46814 1.035374,-1.22426 -1.301029,-1.1003 -1.035375,1.22426 -0.557584,-0.47156 2.426125,-2.86873 0.557584,0.47156 -0.980701,1.15961 1.30103,1.1003 0.980701,-1.15961 z"
         style="font-style:normal;font-variant:normal;font-weight:bold;font-stretch:normal;font-size:5.29167px;line-height:1.25;font-family:Raleway;-inkscape-font-specification:'Raleway Bold';letter-spacing:1.47373px;word-spacing:11.1125px;fill:#000000;stroke-width:0.264583"
         id="path238"
         inkscape:connector-curvature="0" />
      <path
         d="m -79.720217,227.97949 -1.905257,1.47209 -0.446481,-0.57786 2.973037,-2.29711 0.346185,0.44805 -0.754229,3.05701 1.94713,-1.50445 0.446482,0.57786 -2.96885,2.29388 -0.362362,-0.46899 z"
         style="font-style:normal;font-variant:normal;font-weight:bold;font-stretch:normal;font-size:5.29167px;line-height:1.25;font-family:Raleway;-inkscape-font-specification:'Raleway Bold';letter-spacing:1.47373px;word-spacing:11.1125px;fill:#000000;stroke-width:0.264583"
         id="path240"
         inkscape:connector-curvature="0" />
      <path
         d="m -78.937496,233.40307 3.303729,-1.77801 0.346073,0.64304 -3.30373,1.77801 z"
         style="font-style:normal;font-variant:normal;font-weight:bold;font-stretch:normal;font-size:5.29167px;line-height:1.25;font-family:Raleway;-inkscape-font-specification:'Raleway Bold';letter-spacing:1.47373px;word-spacing:11.1125px;fill:#000000;stroke-width:0.264583"
         id="path242"
         inkscape:connector-curvature="0" />
      <path
         d="m -76.539765,238.3544 q -0.190741,-0.14681 -0.338575,-0.34765 -0.146105,-0.19584 -0.234298,-0.4509 -0.129697,-0.37508 -0.08188,-0.73876 0.04782,-0.36368 0.220058,-0.67519 0.173968,-0.30652 0.457538,-0.53895 0.283571,-0.23243 0.623648,-0.35002 0.35508,-0.12278 0.723386,-0.11016 0.370035,0.0176 0.69791,0.15621 0.329604,0.14359 0.581853,0.40351 0.25725,0.25819 0.383488,0.62328 0.129697,0.37508 0.07688,0.74049 -0.04782,0.36368 -0.226788,0.67192 -0.178969,0.30825 -0.46254,0.54068 -0.28357,0.23243 -0.618646,0.34829 -0.340077,0.11759 -0.689921,0.10978 -0.343114,-0.005 -0.660799,-0.12985 l -0.39047,0.70052 -0.226537,-0.65514 z m 0.04072,-0.99952 q 0.08819,0.25506 0.284123,0.41687 l 0.420103,-0.74436 0.226537,0.65515 -0.173968,0.30651 q 0.389058,0.0726 0.774145,-0.0605 0.230052,-0.0795 0.420891,-0.22392 0.190838,-0.14437 0.310914,-0.33147 0.121805,-0.1821 0.157844,-0.40172 0.03777,-0.21463 -0.04178,-0.44468 -0.08301,-0.24006 -0.252013,-0.38878 -0.162277,-0.14546 -0.377277,-0.21669 -0.213271,-0.0662 -0.450801,-0.0569 -0.232528,0.008 -0.452578,0.0837 -0.230052,0.0795 -0.42262,0.21892 -0.190838,0.14437 -0.312644,0.32647 -0.120075,0.18709 -0.156114,0.40672 -0.03604,0.21963 0.04524,0.45468 z"
         style="font-style:normal;font-variant:normal;font-weight:bold;font-stretch:normal;font-size:5.29167px;line-height:1.25;font-family:Raleway;-inkscape-font-specification:'Raleway Bold';letter-spacing:1.47373px;word-spacing:11.1125px;fill:#000000;stroke-width:0.264583"
         id="path244"
         inkscape:connector-curvature="0" />
      <path
         d="m -75.240882,242.73993 q 0.03257,0.25723 0.159506,0.41718 0.127597,0.1652 0.308885,0.24892 0.181952,0.089 0.40251,0.10371 0.226472,0.0193 0.457461,-0.01 l 1.900408,-0.24065 0.09108,0.71922 -1.900409,0.24064 q -0.383231,0.0485 -0.731181,-0.003 -0.347285,-0.0467 -0.624534,-0.21428 -0.276585,-0.16233 -0.4628,-0.45345 -0.186214,-0.29112 -0.240726,-0.7216 -0.05651,-0.44623 0.05585,-0.78049 0.11827,-0.32968 0.345662,-0.55583 0.23264,-0.22682 0.557323,-0.35861 0.325347,-0.12654 0.68758,-0.17241 l 1.900408,-0.24065 0.09174,0.72447 -1.900408,0.24065 q -0.236239,0.0299 -0.45141,0.0998 -0.209256,0.0745 -0.363953,0.20077 -0.154032,0.13152 -0.237089,0.31806 -0.07781,0.18587 -0.0459,0.43786 z"
         style="font-style:normal;font-variant:normal;font-weight:bold;font-stretch:normal;font-size:5.29167px;line-height:1.25;font-family:Raleway;-inkscape-font-specification:'Raleway Bold';letter-spacing:1.47373px;word-spacing:11.1125px;fill:#000000;stroke-width:0.264583"
         id="path246"
         inkscape:connector-curvature="0" />
      <path
         d="m -75.162644,249.30644 -0.638829,-0.0433 0.176263,-2.60283 3.7485,0.25384 -0.173045,2.55532 -0.638829,-0.0433 0.123706,-1.82674 -0.902808,-0.0611 -0.106902,1.57859 -0.591312,-0.04 0.106901,-1.5786 -0.976722,-0.0661 z"
         style="font-style:normal;font-variant:normal;font-weight:bold;font-stretch:normal;font-size:5.29167px;line-height:1.25;font-family:Raleway;-inkscape-font-specification:'Raleway Bold';letter-spacing:1.47373px;word-spacing:11.1125px;fill:#000000;stroke-width:0.264583"
         id="path248"
         inkscape:connector-curvature="0" />
      <path
         d="m -111.28571,274.70606 1.01111,-3.61847 1.39133,0.38878 q 0.44849,0.12532 0.75007,0.36343 0.30159,0.23812 0.46257,0.54683 0.16099,0.30871 0.18564,0.67274 0.0261,0.35892 -0.0779,0.73096 -0.11535,0.41282 -0.34185,0.71215 -0.21998,0.29567 -0.52644,0.46827 -0.30504,0.1675 -0.67844,0.20602 -0.37196,0.0334 -0.78478,-0.0819 z m 2.71374,-1.1977 q 0.0584,-0.20895 0.0507,-0.3979 -0.008,-0.18894 -0.0805,-0.34116 -0.0678,-0.1508 -0.20213,-0.25977 -0.13296,-0.11408 -0.32153,-0.16677 l -0.39752,-0.11108 -0.52691,1.88569 0.39752,0.11108 q 0.19367,0.0541 0.3665,0.0255 0.17283,-0.0286 0.31036,-0.12755 0.14263,-0.0975 0.24201,-0.25655 0.10448,-0.15761 0.16144,-0.36147 z"
         style="font-style:normal;font-variant:normal;font-weight:900;font-stretch:normal;font-size:5.29167px;line-height:1.25;font-family:Raleway;-inkscape-font-specification:'Raleway Heavy';letter-spacing:3.22792px;word-spacing:0px;fill:#000000;stroke-width:0.264583"
         id="path193"
         inkscape:connector-curvature="0" />
      <path
         d="m -101.70326,275.37738 -0.0447,0.89848 -2.67428,-0.13305 0.18668,-3.75244 2.62671,0.13067 -0.0447,0.89848 -1.59611,-0.0794 -0.0263,0.52852 1.36356,0.0678 -0.0415,0.83505 -1.36356,-0.0678 -0.0294,0.59193 z"
         style="font-style:normal;font-variant:normal;font-weight:900;font-stretch:normal;font-size:5.29167px;line-height:1.25;font-family:Raleway;-inkscape-font-specification:'Raleway Heavy';letter-spacing:3.22792px;word-spacing:0px;fill:#000000;stroke-width:0.264583"
         id="path195"
         inkscape:connector-curvature="0" />
      <path
         d="m -93.707393,275.1874 -1.135092,-3.58152 1.543584,-0.48921 q 0.262308,-0.0831 0.519433,-0.0425 0.255526,0.0356 0.467857,0.16258 0.215777,0.12035 0.378519,0.31857 0.161142,0.19318 0.233085,0.42018 0.07514,0.23708 0.06133,0.49126 -0.01541,0.24913 -0.115832,0.47524 -0.09697,0.21947 -0.285355,0.39575 -0.184935,0.16963 -0.447243,0.25277 l -0.585149,0.18545 0.348521,1.09968 z m 0.363352,-2.26898 0.519572,-0.16467 q 0.0908,-0.0288 0.140886,-0.13346 0.05353,-0.11134 -0.01521,-0.32825 -0.07034,-0.22195 -0.186722,-0.27388 -0.116379,-0.0519 -0.207178,-0.0232 l -0.49435,0.15668 z"
         style="font-style:normal;font-variant:normal;font-weight:900;font-stretch:normal;font-size:5.29167px;line-height:1.25;font-family:Raleway;-inkscape-font-specification:'Raleway Heavy';letter-spacing:3.22792px;word-spacing:0px;fill:#000000;stroke-width:0.264583"
         id="path197"
         inkscape:connector-curvature="0" />
      <path
         d="m -88.231316,273.12981 -0.654914,-3.95642 0.725041,-0.41635 3.082425,2.56241 -0.945307,0.54284 -0.563608,-0.52454 -0.867296,0.49805 0.173555,0.74853 z m 0.242544,-3.23305 0.324303,1.26607 0.591964,-0.33994 z"
         style="font-style:normal;font-variant:normal;font-weight:900;font-stretch:normal;font-size:5.29167px;line-height:1.25;font-family:Raleway;-inkscape-font-specification:'Raleway Heavy';letter-spacing:3.22792px;word-spacing:0px;fill:#000000;stroke-width:0.264583"
         id="path199"
         inkscape:connector-curvature="0" />
      <path
         d="m -82.264318,269.20571 -2.552697,-2.75671 1.265756,-1.17208 q 0.201899,-0.18696 0.451835,-0.25974 0.246341,-0.0767 0.492541,-0.0522 0.246488,0.017 0.478167,0.12697 0.228083,0.10612 0.389874,0.28084 0.222912,0.24073 0.312228,0.54747 0.08572,0.30285 0.02159,0.60744 l 1.559615,0.43813 -0.854191,0.79097 -1.307948,-0.36105 -0.283436,0.26246 0.783786,0.84643 z m -0.637871,-2.20758 0.47757,-0.44222 q 0.06989,-0.0647 0.05622,-0.1963 -0.0098,-0.13518 -0.139217,-0.27496 -0.133028,-0.14366 -0.271228,-0.15271 -0.141795,-0.0129 -0.211683,0.0518 l -0.458157,0.42425 z"
         style="font-style:normal;font-variant:normal;font-weight:900;font-stretch:normal;font-size:5.29167px;line-height:1.25;font-family:Raleway;-inkscape-font-specification:'Raleway Heavy';letter-spacing:3.22792px;word-spacing:0px;fill:#000000;stroke-width:0.264583"
         id="path201"
         inkscape:connector-curvature="0" />
      <path
         d="m -77.576353,264.21892 -3.040972,-2.2064 0.605982,-0.83519 3.040972,2.20639 z"
         style="font-style:normal;font-variant:normal;font-weight:900;font-stretch:normal;font-size:5.29167px;line-height:1.25;font-family:Raleway;-inkscape-font-specification:'Raleway Heavy';letter-spacing:3.22792px;word-spacing:0px;fill:#000000;stroke-width:0.264583"
         id="path203"
         inkscape:connector-curvature="0" />
      <path
         d="m -76.266496,256.95411 q -0.153585,0.10337 -0.292488,0.22531 -0.118099,0.10246 -0.242322,0.24295 -0.126771,0.13346 -0.198583,0.28681 -0.05835,0.1246 -0.05591,0.21923 0.0047,0.0898 0.09573,0.13248 0.06709,0.0314 0.130419,0.008 0.06333,-0.0229 0.139816,-0.0865 0.0717,-0.0658 0.159101,-0.16506 0.08965,-0.1041 0.207139,-0.23022 0.181846,-0.20116 0.355628,-0.34766 0.176026,-0.1513 0.358667,-0.22937 0.17785,-0.0803 0.379241,-0.0737 0.20139,0.007 0.441003,0.11887 0.306704,0.14362 0.463704,0.35738 0.154451,0.20672 0.191529,0.45196 0.03932,0.24046 -0.01313,0.50221 -0.055,0.25471 -0.164966,0.48953 -0.08752,0.1869 -0.208284,0.36992 -0.120763,0.18301 -0.265487,0.35481 -0.14248,0.167 -0.299641,0.31545 -0.154916,0.14365 -0.317781,0.25436 l -0.630968,-0.78629 q 0.183974,-0.11836 0.35072,-0.26232 0.143695,-0.11969 0.290968,-0.28445 0.149516,-0.16955 0.243769,-0.37082 0.07181,-0.15336 0.0604,-0.22882 -0.01396,-0.0825 -0.08105,-0.11391 -0.07188,-0.0337 -0.14898,0.006 -0.07964,0.0328 -0.167353,0.12029 -0.08771,0.0875 -0.191126,0.2085 -0.101174,0.11623 -0.225701,0.2449 -0.18215,0.18933 -0.344711,0.31187 -0.167353,0.1203 -0.326946,0.17411 -0.164385,0.0516 -0.332838,0.037 -0.166208,-0.0194 -0.353106,-0.10692 -0.282743,-0.1324 -0.451267,-0.33402 -0.16628,-0.20642 -0.227015,-0.45106 -0.06074,-0.24463 -0.02714,-0.50353 0.03104,-0.26594 0.149981,-0.51993 0.08752,-0.18689 0.208892,-0.34625 0.116578,-0.16161 0.250386,-0.29761 0.131259,-0.14305 0.265674,-0.2554 0.129624,-0.11459 0.24099,-0.20268 z"
         style="font-style:normal;font-variant:normal;font-weight:900;font-stretch:normal;font-size:5.29167px;line-height:1.25;font-family:Raleway;-inkscape-font-specification:'Raleway Heavy';letter-spacing:3.22792px;word-spacing:0px;fill:#000000;stroke-width:0.264583"
         id="path205"
         inkscape:connector-curvature="0" />
    </g>
  </g>
</svg>
